PathFileType	4	(X/Y/Z)	E:\Marcel_BSc\Ayumi_22_01_2025\22-01-2025\conv_dl_1.trc
DataRate	CameraRate	NumFrames	NumMarkers	Units	OrigDataRate	OrigDataStartFrame	OrigNumFrames
200.0	200.0	4	47	mm	200.0	2140	2445	
Frame#	Time	FHD			LBHD			RBHD			RBAR			LBAR			RSACR			LSACR			USACR			C7			CLAV			T10			RSHO			LSHO			LTHI1			LTHI3			LTHI2			LTIB1			LTIB2			LTIB3			LMMAL			LLMAL			LHEE			LMT1			LMT5			LMT3			RTHI1			RTHI2			RTHI3			RTIB1			RTIB3			RTIB2			RLMAL			RMMAL			RHEE			RMT5			RMT1			RMT3			LDUPA			LMUPA			LUUPA			LRAD			RUL			RRAD			RUFIN			RMUPA			RDUPA			RUUPA			
		X1	Y1	Z1	X2	Y2	Z2	X3	Y3	Z3	X4	Y4	Z4	X5	Y5	Z5	X6	Y6	Z6	X7	Y7	Z7	X8	Y8	Z8	X9	Y9	Z9	X10	Y10	Z10	X11	Y11	Z11	X12	Y12	Z12	X13	Y13	Z13	X14	Y14	Z14	X15	Y15	Z15	X16	Y16	Z16	X17	Y17	Z17	X18	Y18	Z18	X19	Y19	Z19	X20	Y20	Z20	X21	Y21	Z21	X22	Y22	Z22	X23	Y23	Z23	X24	Y24	Z24	X25	Y25	Z25	X26	Y26	Z26	X27	Y27	Z27	X28	Y28	Z28	X29	Y29	Z29	X30	Y30	Z30	X31	Y31	Z31	X32	Y32	Z32	X33	Y33	Z33	X34	Y34	Z34	X35	Y35	Z35	X36	Y36	Z36	X37	Y37	Z37	X38	Y38	Z38	X39	Y39	Z39	X40	Y40	Z40	X41	Y41	Z41	X42	Y42	Z42	X43	Y43	Z43	X44	Y44	Z44	X45	Y45	Z45	X46	Y46	Z46	X47	Y47	Z47	
2140	10.69	77.826614	1631.6464	-610.98877	91.767593	1610.4489	-551.58527	115.05634	1599.92	-683.27191	220.26959	240.0238	-1725.2272	187.85951	251.29199	497.47681	318.47165	975.59058	-657.1546	315.21014	977.53119	-584.42096	309.66959	987.26416	-621.15118	251.97379	1409.02	-608.61084	112.3278	1343.3865	-620.84412	287.3071	1138.7135	-614.34161	183.39745	1410.7611	-763.07648	171.74049	1403.6857	-464.76633	249.71495	617.63232	-435.54117	267.40033	555.31665	-449.07306	217.97511	558.58636	-438.21021	256.00507	243.10451	-432.03351	306.22379	241.61401	-439.63278	274.99185	182.88722	-441.02512	263.0368	77.518501	-522.72229	280.86472	70.092911	-449.87436	320.65741	36.128685	-494.92578	123.22104	46.430252	-487.46701	147.03806	27.177977	-411.68808	123.61385	43.592831	-453.88708	255.17764	617.21747	-798.57336	221.6711	560.80237	-796.37964	271.85458	555.12158	-787.08746	253.64723	284.14877	-805.26562	274.21939	222.29161	-797.08423	303.6059	281.06378	-798.04724	278.35739	74.620735	-784.56885	245.01448	83.544083	-714.49036	317.45764	32.18771	-737.64435	139.91713	31.243355	-809.77063	117.55909	42.545238	-747.70685	121.83092	39.798397	-778.41113	272.54788	1308.4648	-296.39606	236.20261	1341.9618	-289.67429	242.04581	1360.0288	-348.81744	220.66333	1260.5059	32.199497	310.15134	1244.5757	-1231.9972	250.49403	1237.4226	-1239.0037	250.73943	1242.3931	-1306.3853	267.68796	1359.0422	-855.23596	278.5127	1337.8363	-912.43024	294.96454	1321.2791	-837.19263
2141	10.695	78.868202	1631.9574	-610.69727	92.772873	1610.6333	-551.46826	116.06795	1600.2032	-683.13641	220.25172	240.0228	-1725.23	187.88036	251.29541	497.46252	317.94427	975.39819	-657.03723	315.02881	977.51459	-584.20837	309.21036	987.05505	-621.07043	252.85052	1408.4546	-608.58386	113.00339	1343.7983	-620.81946	287.25983	1138.5093	-614.27405	184.48892	1411.0847	-762.75311	172.83487	1404.2041	-465.17166	249.73309	617.67969	-435.5993	267.62262	555.38116	-449.12399	218.17583	558.48474	-438.32312	256.30484	243.18788	-432.05283	306.29929	241.06297	-440.0961	275.27551	182.81813	-441.03122	263.05887	77.485817	-522.70953	280.8765	70.104172	-449.89401	320.67117	36.114262	-494.91498	123.21903	46.433655	-487.46265	147.0453	27.1835	-411.68604	123.61919	43.588276	-453.88635	254.87784	617.16101	-798.43921	221.34726	560.89862	-796.20215	271.60397	555.25659	-786.94672	253.60892	284.18918	-805.17426	274.19391	222.32225	-797.01233	303.58313	281.091	-797.97418	278.34793	74.641045	-784.50214	245.00919	83.507057	-714.43109	317.45731	32.23476	-737.63983	139.91081	31.252485	-809.76184	117.51481	42.549072	-747.67554	121.83665	39.791691	-778.39789	273.21094	1309.6936	-296.1619	237.12997	1343.5544	-289.71103	243.08362	1361.0145	-349.021	221.12494	1264.9092	32.893646	310.09824	1248.3562	-1233.0686	250.36415	1241.7676	-1240.135	250.67485	1247.2969	-1307.4978	268.43216	1359.6882	-855.20941	279.0593	1339.0532	-912.69556	295.46832	1321.5358	-837.51282
2142	10.7	79.923172	1632.0338	-610.69824	93.871483	1610.6641	-551.34302	117.15001	1600.3655	-683.05658	220.31525	240.00108	-1725.1799	187.96387	251.2776	497.37515	317.45206	975.16339	-656.96429	314.73376	977.29944	-584.13629	308.88629	986.67804	-621.05737	253.68971	1408.6632	-608.7417	113.73144	1344.1428	-620.87189	287.19757	1138.3057	-614.198	185.69818	1411.1381	-762.40161	173.91995	1404.7871	-465.52039	249.7048	617.67615	-435.67242	267.86224	555.4751	-449.17392	218.37407	558.38513	-438.42029	256.64981	243.35736	-431.98331	306.66061	240.98372	-440.12894	275.54132	182.78059	-441.03125	263.08932	77.480843	-522.72382	280.93512	70.097664	-449.89984	320.67548	36.092953	-494.91986	123.2322	46.417801	-487.45999	147.0537	27.179165	-411.68027	123.63061	43.590389	-453.8942	254.46507	617.25836	-798.29285	221.0715	560.92078	-796.03088	271.7608	555.18256	-787.04486	253.56993	284.18622	-805.06976	274.13977	222.36394	-796.95166	303.56595	281.11612	-797.90173	278.34271	74.643921	-784.45355	245.00055	83.492302	-714.40137	317.43753	32.214561	-737.599	139.91806	31.263233	-809.75464	117.53028	42.534023	-747.65155	121.8294	39.780659	-778.38751	273.86908	1310.9194	-295.93872	238.03839	1345.0269	-289.79193	244.04695	1361.9886	-349.20026	221.67548	1269.1405	33.582657	310.05521	1252.3419	-1234.0764	250.23952	1246.0826	-1241.2551	250.65166	1252.0319	-1308.5583	269.21616	1360.3167	-855.20154	279.67239	1340.1266	-912.86981	295.95251	1321.7836	-837.81708
2143	10.705	80.955612	1632.3575	-610.32831	94.902435	1610.7853	-551.23035	118.07441	1600.6296	-682.91223	220.22693	240.02089	-1725.2622	187.88864	251.29787	497.39377	316.97256	974.92767	-656.90314	314.18771	977.17676	-584.02106	308.47495	986.40594	-620.98914	254.4863	1408.5369	-608.77917	114.40765	1344.4711	-620.90973	287.10999	1138.083	-614.14233	186.58522	1411.7059	-762.05811	175.00116	1405.2551	-465.91272	250.02733	617.97266	-435.56979	268.07303	555.55554	-449.21225	218.57956	558.2818	-438.50275	257.1088	243.4758	-431.95181	307.11597	241.46872	-439.70255	275.79474	182.7785	-441.01758	263.07657	77.496155	-522.73206	280.97382	70.072906	-449.90009	320.69067	36.089584	-494.91833	123.22549	46.414551	-487.45676	147.21727	26.743172	-411.86621	123.63985	43.588188	-453.88254	254.06078	617.37708	-798.11072	220.87654	560.86737	-795.8576	271.16742	555.39478	-786.6405	253.55536	284.21167	-804.96741	274.12308	222.40472	-796.87134	303.52563	281.15588	-797.81866	278.32394	74.672562	-784.41235	244.99391	83.484352	-714.35553	317.44205	32.234562	-737.58331	139.89789	31.273212	-809.73175	117.51316	42.524147	-747.62354	121.81593	39.794514	-778.35828	274.46106	1312.1184	-295.7236	238.95753	1346.5159	-289.83145	245.06772	1362.8746	-349.42288	222.35638	1273.6482	34.392921	310.0715	1255.9474	-1235.0394	250.1407	1250.4447	-1242.2637	250.66576	1256.6555	-1309.6439	269.94659	1360.89	-855.18359	280.31091	1341.1097	-913.02325	296.37805	1322.0258	-838.13049
